:SAMPLES-PER-SECOND 30
:FULLY-SPECIFIED
:DEGREES
839
root  13.8428 40.8167 8.6391 99.1318 88.1191 97.1403
RightUpLeg  -4.78758 -10.4672 -8.91905
RightLeg  6.69067 -10.0647 2.94448
RightFoot  0.067885 -0.049476 0.499672
RightToes  0.000481921 0.542163 -0.142578
Spine  7.77997 -1.73211 0.0906227
Spine1  -1.21648 -2.2009 2.47361
HEad  9.24251 3.6772 -0.986204
LeftShoulder1  6.52625 -11.1753 -38.2927
LeftArm  -6.44008 10.983 -36.6771
LeftForeArm  -178.321 -52.3619 -167.815
LeftHand  -0.25398 0.0180481 5.50724
RightShoulder  4.09488 7.05457 32.8399
RightArm  -1.00821 -11.2511 42.0565
RightForeArm  169.254 54.6748 165.797
RightHand  -0.814962 2.97618 -11.5585
LeftUpLeg  -1.24 5.78121 4.55974
LeftLeg  -0.445937 17.3891 -4.51189
LeftFoot  2.39961 0.327488 -2.86894
LeftToes  1.06247e-005 4.65869e-005 -8.65511e-006
840
root  13.7845 40.8208 8.67951 120.543 87.7501 118.797
RightUpLeg  -4.27956 -10.3728 -8.92331
RightLeg  6.41472 -10.9531 2.81856
RightFoot  0.0185747 -0.0722876 0.72793
RightToes  0.000481921 0.542163 -0.142578
Spine  7.73343 -1.83017 -0.540245
Spine1  -0.671552 -2.50136 3.37684
HEad  9.54432 3.26412 -1.0527
LeftShoulder1  6.45235 -11.265 -37.553
LeftArm  -6.99863 7.66973 -38.1142
LeftForeArm  -178.524 -54.1423 -166.995
LeftHand  -0.25398 0.0180481 5.50724
RightShoulder  4.10059 7.16672 32.4852
RightArm  -1.61231 -11.6373 42.5157
RightForeArm  166.339 54.5229 165.643
RightHand  -0.851825 2.85183 -12.2349
LeftUpLeg  -1.28211 5.86384 4.65935
LeftLeg  -0.287224 16.3224 -4.54816
LeftFoot  2.59386 0.324363 -2.82758
LeftToes  1.06247e-005 4.65869e-005 -8.65511e-006
841
root  13.7042 40.8198 8.75433 151.814 86.1868 150.097
RightUpLeg  -3.77977 -10.477 -8.95815
RightLeg  6.1945 -12.9745 2.77562
RightFoot  -0.110567 -0.0934434 0.942306
RightToes  0.000481921 0.542163 -0.142578
Spine  7.76204 -2.09672 -1.60463
Spine1  -0.622778 -3.09515 4.93992
HEad  10.135 2.15123 -0.690348
LeftShoulder1  6.37307 -11.3101 -36.9072
LeftArm  -6.74921 2.17998 -39.8209
LeftForeArm  -179.715 -56.3161 -165.855
LeftHand  -0.25398 0.0180481 5.50724
RightShoulder  4.05539 7.12811 32.1998
RightArm  -2.64119 -12.0847 43.0171
RightForeArm  164.625 54.2301 165.656
RightHand  -0.849201 2.66749 -12.4546
LeftUpLeg  -1.99322 5.87393 4.74575
LeftLeg  0.220934 14.1032 -4.48154
LeftFoot  2.88491 0.316603 -2.7121
LeftToes  1.06247e-005 4.65869e-005 -8.65511e-006
842
root  13.606 40.8082 8.80863 163.695 84.226 161.702
RightUpLeg  -3.78103 -10.775 -9.02111
RightLeg  6.25344 -14.8584 2.90959
RightFoot  -0.207226 -0.0995318 1.00582
RightToes  0.000481921 0.542163 -0.142578
Spine  7.92349 -2.17828 -1.85274
Spine1  -1.15488 -3.27766 5.59863
HEad  10.5935 0.144924 0.0904161
LeftShoulder1  6.2521 -11.1379 -36.5961
LeftArm  -5.42987 -2.73631 -42.2022
LeftForeArm  -178.901 -56.4359 -165.843
LeftHand  -0.25398 0.0180481 5.50724
RightShoulder  4.03914 7.21919 31.7271
RightArm  -4.56557 -11.5871 43.9734
RightForeArm  165.399 54.6271 165.521
RightHand  -0.706322 1.71748 -11.7024
LeftUpLeg  -3.14237 5.78067 4.74389
LeftLeg  0.858428 12.0804 -4.35074
LeftFoot  3.09731 0.31013 -2.61441
LeftToes  1.06247e-005 4.65869e-005 -8.65511e-006
843
root  13.506 40.8031 8.80329 163.836 84.1213 161.43
RightUpLeg  -4.47508 -10.9717 -9.0526
RightLeg  6.45579 -14.8867 3.06777
RightFoot  -0.0290994 -0.0790655 0.796987
RightToes  0.000481921 0.542163 -0.142578
Spine  8.34897 -1.47491 0.201518
Spine1  -2.10693 -1.98164 2.99477
HEad  10.5808 -2.71028 1.38514
LeftShoulder1  6.07405 -10.8189 -36.3103
LeftArm  -3.25869 -3.82525 -44.8056
LeftForeArm  -174.804 -53.3743 -167.606
LeftHand  -0.25398 0.0180481 5.50724
RightShoulder  3.86727 7.20627 30.1407
RightArm  -7.32953 -8.63109 45.6491
RightForeArm  165.466 56.2414 164.725
RightHand  -0.564483 0.551877 -11.1187
LeftUpLeg  -3.7946 5.75969 4.68667
LeftLeg  0.910628 12.0199 -4.41305
LeftFoot  3.21552 0.312131 -2.64605
LeftToes  1.06247e-005 4.65869e-005 -8.65511e-006
844
root  13.4096 40.8134 8.74965 154.222 85.8395 151.552
RightUpLeg  -5.34951 -10.8243 -8.98352
RightLeg  6.39865 -13.2735 3.08538
RightFoot  0.484826 -0.0429278 0.446532
RightToes  0.000481921 0.542163 -0.142578
Spine  8.95465 -0.0264002 4.14192
Spine1  -2.97472 0.630133 -2.58445
HEad  10.4075 -5.96067 3.14453
LeftShoulder1  5.97928 -10.7802 -35.778
LeftArm  -1.10797 -0.966343 -46.1528
LeftForeArm  -171.232 -49.5059 -169.465
LeftHand  -0.25398 0.0180481 5.50724
RightShoulder  3.37703 6.63611 27.2511
RightArm  -9.77978 -1.40486 46.8762
RightForeArm  162.046 60.6013 162.079
RightHand  -0.498263 0.0331785 -10.6627
LeftUpLeg  -3.59225 5.84624 4.61786
LeftLeg  0.282797 13.809 -4.69068
LeftFoot  3.29704 0.320105 -2.76789
LeftToes  1.06247e-005 4.65869e-005 -8.65511e-006
845
root  13.2729 40.8235 8.66598 123.552 87.5198 120.987
RightUpLeg  -5.86681 -10.5295 -8.90071
RightLeg  6.08561 -11.2691 3.03731
RightFoot  1.14479 -0.00990976 0.161459
RightToes  0.000481921 0.542163 -0.142578
Spine  9.4397 1.492 8.41345
Spine1  -2.99317 3.40439 -8.51938
HEad  10.647 -8.59959 4.5379
LeftShoulder1  6.12121 -11.2792 -35.3347
LeftArm  -0.107432 2.77898 -45.1602
LeftForeArm  -172.163 -48.1953 -169.873
LeftHand  -0.25398 0.0180481 5.50724
RightShoulder  2.80399 5.84587 23.8177
RightArm  -11.4828 11.7748 46.6519
RightForeArm  145.162 72.0473 144.137
RightHand  -0.410379 -0.0548821 -8.99145
LeftUpLeg  -2.9946 5.88109 4.4957
LeftLeg  -0.351844 16.1176 -4.9248
LeftFoot  3.30521 0.322258 -2.79618
LeftToes  1.06247e-005 4.65869e-005 -8.65511e-006
846
root  13.0343 40.812 8.55388 62.9326 87.3652 60.8025
RightUpLeg  -6.51301 -10.2688 -8.82132
RightLeg  6.20014 -8.73242 2.96954
RightFoot  1.80441 0.027173 -0.128214
RightToes  0.000481921 0.542163 -0.142578
Spine  10.1736 2.81936 12.9393
Spine1  -2.24306 6.142 -14.2022
HEad  11.42 -9.93509 4.67457
LeftShoulder1  6.40686 -12.0681 -35.0799
LeftArm  -0.00945469 4.72734 -42.6481
LeftForeArm  -176.606 -50.0683 -168.862
LeftHand  -0.25398 0.0180481 5.50724
RightShoulder  2.40866 5.69688 19.7947
RightArm  -13.6004 31.0957 45.6355
RightForeArm  54.6228 74.403 47.3635
RightHand  -0.505714 1.7643 -8.25158
LeftUpLeg  -2.4532 5.95855 4.34879
LeftLeg  -0.348524 18.8997 -4.9851
LeftFoot  3.06023 0.317827 -2.71882
LeftToes  1.06247e-005 4.65869e-005 -8.65511e-006
